<mxfile host="app.diagrams.net" agent="Mozilla/5.0 (Windows NT 10.0; Win64; x64) AppleWebKit/537.36 (KHTML, like Gecko) Chrome/129.0.0.0 Safari/537.36" version="24.7.17">
  <diagram name="Page-1" id="9Ae5RRKUads0vfHu0703">
    <mxGraphModel dx="1114" dy="558" grid="1" gridSize="10" guides="1" tooltips="1" connect="1" arrows="1" fold="1" page="1" pageScale="1" pageWidth="850" pageHeight="1100" math="0" shadow="0">
      <root>
        <mxCell id="0" />
        <mxCell id="1" parent="0" />
        <mxCell id="pmcX_HDRGR7efQEYhfA3-1" value="Patient" style="rounded=0;whiteSpace=wrap;html=1;fillColor=#dae8fc;strokeColor=#6c8ebf;" vertex="1" parent="1">
          <mxGeometry x="60" y="220" width="120" height="60" as="geometry" />
        </mxCell>
        <mxCell id="pmcX_HDRGR7efQEYhfA3-2" value="Registration System" style="rounded=0;whiteSpace=wrap;html=1;fillColor=#dae8fc;strokeColor=#6c8ebf;" vertex="1" parent="1">
          <mxGeometry x="300" y="220" width="180" height="60" as="geometry" />
        </mxCell>
        <mxCell id="pmcX_HDRGR7efQEYhfA3-3" value="Database" style="rounded=0;whiteSpace=wrap;html=1;fillColor=#dae8fc;strokeColor=#6c8ebf;" vertex="1" parent="1">
          <mxGeometry x="610" y="220" width="120" height="60" as="geometry" />
        </mxCell>
        <mxCell id="pmcX_HDRGR7efQEYhfA3-4" value="1. Registration Details" style="edgeStyle=orthogonalEdgeStyle;rounded=0;orthogonalLoop=1;" edge="1" parent="1">
          <mxGeometry x="-0.0001" y="10" relative="1" as="geometry">
            <Array as="points">
              <mxPoint x="260" y="230" />
              <mxPoint x="260" y="230" />
            </Array>
            <mxPoint as="offset" />
            <mxPoint x="200" y="230" as="sourcePoint" />
            <mxPoint x="280" y="230" as="targetPoint" />
          </mxGeometry>
        </mxCell>
        <mxCell id="pmcX_HDRGR7efQEYhfA3-5" value="2. Validate &amp; Store" style="edgeStyle=orthogonalEdgeStyle;rounded=0;orthogonalLoop=1;" edge="1" parent="1">
          <mxGeometry x="-0.0001" y="10" relative="1" as="geometry">
            <mxPoint as="offset" />
            <mxPoint x="490" y="230" as="sourcePoint" />
            <mxPoint x="590" y="230.0344827586207" as="targetPoint" />
          </mxGeometry>
        </mxCell>
        <mxCell id="pmcX_HDRGR7efQEYhfA3-6" value="3. Confirmation" style="edgeStyle=orthogonalEdgeStyle;rounded=0;orthogonalLoop=1;" edge="1" parent="1" source="pmcX_HDRGR7efQEYhfA3-3">
          <mxGeometry x="-0.0222" y="10" relative="1" as="geometry">
            <mxPoint x="690" y="290" as="sourcePoint" />
            <mxPoint x="430" y="280" as="targetPoint" />
            <Array as="points">
              <mxPoint x="670" y="320" />
              <mxPoint x="430" y="320" />
            </Array>
            <mxPoint as="offset" />
          </mxGeometry>
        </mxCell>
        <mxCell id="pmcX_HDRGR7efQEYhfA3-7" value="4. Account Created" style="edgeStyle=orthogonalEdgeStyle;rounded=0;orthogonalLoop=1;" edge="1" parent="1" source="pmcX_HDRGR7efQEYhfA3-2" target="pmcX_HDRGR7efQEYhfA3-1">
          <mxGeometry x="-0.0222" y="10" relative="1" as="geometry">
            <Array as="points">
              <mxPoint x="390" y="320" />
              <mxPoint x="130" y="320" />
            </Array>
            <mxPoint as="offset" />
          </mxGeometry>
        </mxCell>
        <mxCell id="pmcX_HDRGR7efQEYhfA3-8" value="" style="endArrow=none;html=1;rounded=0;entryX=0;entryY=0.5;entryDx=0;entryDy=0;" edge="1" parent="1" target="pmcX_HDRGR7efQEYhfA3-2">
          <mxGeometry width="50" height="50" relative="1" as="geometry">
            <mxPoint x="180" y="249.66" as="sourcePoint" />
            <mxPoint x="250" y="249.66" as="targetPoint" />
            <Array as="points">
              <mxPoint x="220" y="249.66" />
            </Array>
          </mxGeometry>
        </mxCell>
        <mxCell id="pmcX_HDRGR7efQEYhfA3-9" value="" style="endArrow=none;html=1;rounded=0;entryX=0;entryY=0.5;entryDx=0;entryDy=0;" edge="1" parent="1" target="pmcX_HDRGR7efQEYhfA3-3">
          <mxGeometry width="50" height="50" relative="1" as="geometry">
            <mxPoint x="480" y="249.66" as="sourcePoint" />
            <mxPoint x="600" y="250.00000000000003" as="targetPoint" />
            <Array as="points">
              <mxPoint x="520" y="249.66" />
            </Array>
          </mxGeometry>
        </mxCell>
      </root>
    </mxGraphModel>
  </diagram>
</mxfile>
